<?xml version="1.0" encoding="UTF-8" standalone="no"?>
<!-- Created with Inkscape (http://www.inkscape.org/) -->

<svg
   width="16"
   height="16"
   viewBox="0 0 16 16"
   version="1.1"
   id="svg1"
   inkscape:version="1.3.2 (091e20ef0f, 2023-11-25, custom)"
   sodipodi:docname="lock.svg"
   xml:space="preserve"
   xmlns:inkscape="http://www.inkscape.org/namespaces/inkscape"
   xmlns:sodipodi="http://sodipodi.sourceforge.net/DTD/sodipodi-0.dtd"
   xmlns="http://www.w3.org/2000/svg"
   xmlns:svg="http://www.w3.org/2000/svg"><sodipodi:namedview
     id="namedview1"
     pagecolor="#505050"
     bordercolor="#eeeeee"
     borderopacity="1"
     inkscape:showpageshadow="0"
     inkscape:pageopacity="0"
     inkscape:pagecheckerboard="0"
     inkscape:deskcolor="#d1d1d1"
     inkscape:document-units="px"
     inkscape:zoom="14.562568"
     inkscape:cx="6.592244"
     inkscape:cy="18.609355"
     inkscape:window-width="1920"
     inkscape:window-height="1031"
     inkscape:window-x="0"
     inkscape:window-y="24"
     inkscape:window-maximized="1"
     inkscape:current-layer="layer1"
     showgrid="false" /><defs
     id="defs1" /><g
     inkscape:label="Layer 1"
     inkscape:groupmode="layer"
     id="layer1"><path
       id="rect1"
       style="fill:#ffffff;fill-opacity:1;stroke:#000000;stroke-width:0.92026;stroke-linecap:square;stroke-dasharray:none;stroke-opacity:1;paint-order:stroke fill markers"
       d="M 4.6699219,0.73242188 C 3.1084891,0.73564187 1.8101345,1.7771159 1.6816406,3.1308594 l 0.017578,2.3554687 1.7226562,0.041016 C 3.4246949,5.1577465 3.4372872,4.419142 3.3710938,3.6796875 3.3641118,3.2205254 3.9613198,2.3887828 4.6484375,2.3886719 5.229679,2.388205 5.7019766,3.0235732 5.8320312,3.4648438 L 5.8183594,8.4355469 H 3.4667969 l -1.71875,0.1464843 H 1.3613281 0.85742188 V 14.935547 H 8.3476562 V 8.5820312 H 7.7011719 c -0.0012,-0.097378 -1.148e-4,-0.1823331 0,-0.2734374 H 7.6621094 C 7.6705987,6.717066 7.686153,4.1376322 7.6738281,3.3476562 7.6435842,1.7959651 6.329585,0.73296937 4.6699219,0.73242188 Z"
       sodipodi:nodetypes="cccccccccccccccccccc" /><path
       style="fill:#000000;stroke:#ffffff;stroke-width:0.524627;stroke-linecap:butt;stroke-linejoin:miter;stroke-dasharray:none;stroke-opacity:1"
       d="m 10.006124,11.095571 2.967238,-5.1383544 1.910456,0.9852077 -2.983994,5.1673747 z"
       id="path606"
       sodipodi:nodetypes="ccccc" /><path
       style="fill:#000000;stroke:#ffffff;stroke-width:0.280575;stroke-linecap:butt;stroke-linejoin:miter;stroke-dasharray:none;stroke-opacity:1"
       d="M 9.6061484,12.301159 11.16352,13.035383 9.2385674,14.549232 Z"
       id="path607"
       sodipodi:nodetypes="cccc" /><ellipse
       style="fill:#000000;fill-opacity:1;stroke:#ffffff;stroke-width:0.354437;stroke-linecap:square;stroke-dasharray:none;stroke-opacity:1;paint-order:stroke fill markers"
       id="path608"
       cx="12.979603"
       cy="8.9627981"
       rx="0.76686436"
       ry="0.74940449"
       transform="matrix(0.95352846,-0.30130295,0.2715079,0.96243621,0,0)" /></g></svg>
