<?xml version="1.0" encoding="UTF-8" standalone="no"?>
<!-- Created with Inkscape (http://www.inkscape.org/) -->

<svg
   width="16"
   height="16"
   viewBox="0 0 16 16"
   version="1.1"
   id="svg1"
   inkscape:version="1.3.2 (091e20ef0f, 2023-11-25, custom)"
   sodipodi:docname="menu.svg"
   xmlns:inkscape="http://www.inkscape.org/namespaces/inkscape"
   xmlns:sodipodi="http://sodipodi.sourceforge.net/DTD/sodipodi-0.dtd"
   xmlns="http://www.w3.org/2000/svg"
   xmlns:svg="http://www.w3.org/2000/svg">
  <sodipodi:namedview
     id="namedview1"
     pagecolor="#505050"
     bordercolor="#eeeeee"
     borderopacity="1"
     inkscape:showpageshadow="0"
     inkscape:pageopacity="0"
     inkscape:pagecheckerboard="0"
     inkscape:deskcolor="#d1d1d1"
     inkscape:document-units="px"
     inkscape:zoom="23.615791"
     inkscape:cx="11.517717"
     inkscape:cy="14.312457"
     inkscape:window-width="1920"
     inkscape:window-height="1031"
     inkscape:window-x="0"
     inkscape:window-y="24"
     inkscape:window-maximized="1"
     inkscape:current-layer="layer1"
     showgrid="false" />
  <defs
     id="defs1" />
  <g
     inkscape:label="Layer 1"
     inkscape:groupmode="layer"
     id="layer1">
    <path
       id="path2"
       style="fill:none;fill-opacity:0.712489;stroke:#000000;stroke-width:0.88818898;stroke-linecap:square;stroke-dasharray:none;stroke-opacity:1;paint-order:stroke fill markers"
       d="M 7.5296216,0.76219689 5.1704755,1.317398 5.5064821,2.7491087 A 6.042611,5.8546465 0 0 0 3.2490845,4.4832268 L 1.8671974,3.8382481 0.84261319,6.02834 2.1511469,6.6402428 A 6.042611,5.8546465 0 0 0 1.9547484,8.0814034 6.042611,5.8546465 0 0 0 2.1322168,9.432787 L 0.84261319,10.03524 1.8671974,12.227695 3.1922946,11.608704 a 6.042611,5.8546465 0 0 0 2.2928914,1.80027 l -0.3147105,1.339571 2.3591461,0.552838 0.3218094,-1.372646 a 6.042611,5.8546465 0 0 0 0.1443409,0.0094 6.042611,5.8546465 0 0 0 2.7519441,-0.656792 l 0.918102,1.115129 1.874067,-1.535663 -0.880244,-1.07024 a 6.042611,5.8546465 0 0 0 1.244645,-2.5491877 h 1.455241 V 6.8221453 H 13.894821 A 6.042611,5.8546465 0 0 0 12.62178,4.3178476 l 0.918105,-1.1151278 -1.874067,-1.5356629 -0.97016,1.1789166 a 6.042611,5.8546465 0 0 0 -2.6998861,-0.6189903 6.042611,5.8546465 0 0 0 -0.120678,0.00945 z" />
    <path
       style="fill:#ffffff;fill-opacity:1;stroke:#000000;stroke-width:0.0415748;stroke-linecap:square;stroke-dasharray:none;paint-order:stroke fill markers"
       d="M 6.4762741,14.39466 C 6.1915152,14.32637 5.9557623,14.26719 5.9523793,14.263157 c -0.00338,-0.004 0.055247,-0.26252 0.1302888,-0.574415 0.145163,-0.603337 0.1570752,-0.677349 0.1090191,-0.677349 -0.016758,0 -0.2254213,-0.09263 -0.4636971,-0.205857 C 4.8897417,12.407228 4.2474113,11.89557 3.6697787,11.166039 L 3.3873728,10.80937 3.1586496,10.914033 c -0.1257978,0.05757 -0.3975773,0.184506 -0.6039544,0.282091 -0.206377,0.09759 -0.377245,0.173794 -0.3797066,0.169353 C 2.0811,11.196089 1.7114306,10.360076 1.724597,10.346909 1.7348945,10.336612 1.9933796,10.210446 2.2990085,10.066541 2.6046373,9.9226355 2.8612986,9.7982932 2.869367,9.7902248 2.8774354,9.7821565 2.835688,9.5785654 2.7765951,9.3377998 2.5341742,8.3500924 2.5453933,7.6695455 2.8211733,6.6337072 2.8716273,6.4442002 2.9096485,6.2863216 2.9056648,6.2828655 2.9016811,6.2794095 2.6326018,6.1525424 2.3077107,6.0009386 1.9828197,5.8493347 1.7169998,5.7148757 1.7169998,5.7021406 c 0,-0.012735 0.099171,-0.2341024 0.2203788,-0.4919277 0.1212083,-0.257825 0.2241834,-0.4799802 0.2288335,-0.4936774 0.00465,-0.013698 0.2825164,0.1032632 0.6174805,0.2599128 0.3349641,0.1566493 0.621677,0.2848172 0.6371399,0.2848172 0.015463,0 0.1168308,-0.1098723 0.2252623,-0.2441606 C 4.2910322,4.2183743 4.9255104,3.7227198 5.8203011,3.3186144 6.0326571,3.2227102 6.2167412,3.1345946 6.2293764,3.122802 6.2479878,3.1054321 6.1708967,2.7443659 5.9582537,1.8529645 5.9476067,1.8083313 6.0310242,1.7794532 6.4833528,1.6711823 6.7791191,1.6003866 7.0309709,1.5533796 7.0430229,1.5667222 c 0.012052,0.013343 0.08901,0.3148891 0.1710176,0.6701032 0.082008,0.3552142 0.1588219,0.6563879 0.1706985,0.6692749 0.011877,0.012887 0.1803499,0.00786 0.3743856,-0.011167 0.4266178,-0.041839 0.9178473,-0.00207 1.4534889,0.1176646 0.4543944,0.1015747 0.7829346,0.2175031 1.2735205,0.4493733 l 0.388059,0.1834122 0.435078,-0.5310036 c 0.239293,-0.2920519 0.441134,-0.5310035 0.448535,-0.5310035 0.02044,0 0.85978,0.696781 0.85978,0.713753 0,0.00814 -0.178458,0.2301114 -0.396572,0.4932707 -0.218115,0.2631593 -0.403835,0.4959354 -0.412711,0.5172801 -0.0089,0.021345 0.09484,0.1672149 0.230475,0.3241559 0.658513,0.761941 0.995593,1.4096311 1.228266,2.3600812 l 0.1162,0.4746695 h 0.672574 0.672575 v 0.5670825 0.5670825 h -0.677349 c -0.372541,0 -0.677348,0.00733 -0.677348,0.016287 0,0.00896 -0.03564,0.1826273 -0.0792,0.3859311 -0.210739,0.9835407 -0.556631,1.6886552 -1.213605,2.4739792 -0.232483,0.277902 -0.25362,0.313915 -0.212654,0.362303 0.02502,0.02955 0.206003,0.249667 0.402189,0.489148 0.347946,0.424733 0.35523,0.436811 0.296798,0.492094 -0.03295,0.03117 -0.229323,0.194786 -0.436392,0.36359 -0.360232,0.293664 -0.378599,0.304334 -0.425312,0.247091 -0.02685,-0.0329 -0.210924,-0.257778 -0.40905,-0.499717 -0.198125,-0.24194 -0.362649,-0.443741 -0.365608,-0.448447 -0.003,-0.0047 -0.195283,0.0839 -0.427387,0.196889 -0.9444956,0.459808 -1.9001789,0.664278 -2.7690977,0.592455 -0.1992665,-0.01647 -0.3681616,-0.02526 -0.3753229,-0.01954 -0.00716,0.0057 -0.078832,0.28953 -0.1592693,0.630683 -0.080437,0.341154 -0.1596403,0.623667 -0.1760073,0.627808 -0.016367,0.0041 -0.2627428,-0.04835 -0.5475017,-0.116643 z m 2.0150376,-1.856514 c 0.6721777,-0.08103 1.4403498,-0.335247 2.2102523,-0.731448 0.397955,-0.204793 0.443919,-0.237831 0.598335,-0.430078 C 11.938743,10.58126 12.43522,9.5996678 12.681218,8.6455905 12.788586,8.2291752 12.793323,8.1322089 12.726495,7.718623 12.609533,6.9947614 12.201435,6.0437177 11.716208,5.3642209 11.176905,4.6089975 10.833666,4.3089348 10.284771,4.1128443 10.120971,4.0543275 9.8522709,3.9571307 9.6876595,3.8968513 8.9012219,3.6088643 8.0442799,3.5380856 6.9301256,3.6690942 6.6140225,3.7062634 6.55327,3.7247124 6.2564096,3.873684 5.305949,4.3506474 4.4739584,5.0319458 3.8916079,5.8101667 3.6316107,6.1576128 3.5695694,6.3198182 3.4455739,6.9763123 3.3432374,7.5181325 3.3283602,8.4904009 3.4143924,9.0141116 3.5262913,9.6952823 3.6720207,10.073659 3.971084,10.459522 c 0.2199619,0.283803 1.0181217,1.046917 1.3059338,1.248592 0.6560914,0.459735 1.1413439,0.691323 1.7045432,0.813498 0.2436804,0.05286 1.1280669,0.06255 1.5097507,0.01653 z"
       id="path3" />
  </g>
</svg>
